<?xml version="1.0" encoding="UTF-8"?>
<svg id="Layer_1" data-name="Layer 1" xmlns="http://www.w3.org/2000/svg" viewBox="0 0 1024.15 1024.15">
  <defs>
    <style>
      .cls-1 {
        fill: #ee3241;
      }

      .cls-2 {
        fill: #fff;
      }

      .cls-3 {
        fill: #e81c5f;
      }
    </style>
  </defs>
  <rect class="cls-1" width="1024.15" height="1024.15" rx="49.75" ry="49.75"/>
  <g>
    <path class="cls-2" d="M639.78,198.12L229.54,407.6h121.58l-107.82,273.99c100.18-15.38,200.37-30.76,300.55-46.14-103.58,19.71-207.17,39.42-310.75,59.12-20.63,4.06-41.25,8.11-61.88,12.17-3.97,1.89-24.58,12.14-31.52,33.97-1.47,4.63-7.12,23.69,6.89,41.98,14.77,19.28,39.66,22.39,43.3,22.8,124.2,6.85,248.4,13.69,372.59,20.54-14.93-12.41-22.81-38.57-25.47-54.3-5.26-39.2-3.53-83.48,14.61-120.23-14.05,34.35-13.9,71.69-8.25,107.29,1.59,11.81,4.86,23.27,10.01,34.32,4.31,9.02,13.02,26.89,25.61,28.36,1.92,.28,3.88,.13,5.89-.02-.14,0-.29,0-.44,0-.14,0-.34,.03-.27,.02,4.17-.73,8.2-2.44,11.43-4.76,4.96-4.09,8.34-9.21,11.83-14.39,6.29-9.74,11.66-19.86,16.52-30.18,6.78-19.11,13.57-38.21,20.35-57.32l120.9-307.23h121.59l-247.03-209.48Zm-205.26,250.76h97.95l-32.4,82.33h-97.95l32.4-82.33Zm25.63,183.78h-97.95l32.4-82.33h97.95l-32.4,82.33Zm132.69-1.57c-.95-.68-2-1.35-3.22-1.96-3.78-1.89-7.46-2.5-9.87-2.73-10.61,2.09-21.22,4.17-31.83,6.26h-53.65l32.4-82.33h97.95l-31.78,80.76Zm39.3-99.87h-97.95l32.4-82.33h97.95l-32.4,82.33Z"/>
    <path class="cls-3" d="M621.17,704.34c-27.17,3.91-54.34,7.81-81.51,11.72,.03-5.18,.28-11.95,1.13-19.86,1.21-11.31,3.09-19.69,3.79-22.68,2.74-11.72,5.61-18.7,7.06-22.02,2.45-5.6,4.34-8.62,6.61-11.41,4.7-5.77,9.65-8.77,10.75-9.43,3.44-2.04,6.66-3.27,8.99-4,1.78-.22,4.54-.36,7.66,.4,3.33,.81,6.32,2.45,10.09,6,5.71,5.37,8.69,10.86,10.4,14.24,2.81,5.55,6.29,13.45,9.04,23.48,1.37,5.08,2.63,10.57,3.68,16.43,1.09,6.05,1.82,11.79,2.29,17.13Z"/>
  </g>
</svg>