<?xml version="1.0" encoding="UTF-8"?><svg id="Layer_1" xmlns="http://www.w3.org/2000/svg" viewBox="0 0 995.23 571.88"><defs><style>.cls-1{fill:#090909;}</style></defs><path class="cls-1" d="M167.68,525.85c-3.3-24.08-5.71-57.61-1.59-97.18,0,0,5.76-50.06,21.46-94.43,46.17-130.38,179.56-225.32,317.12-221.17,99.38,3,181.92,42.47,233.38,131.18,35.51,61.22,37.64,126.35,8.88,191.64-3.39,7.69-8.52,14.61-12.84,21.89,25.98-12.88,48.28-30.47,69.77-49.06,33.4-28.89,63-61.28,88.01-97.79,4.02-5.87,5.89-10.02,.13-16.57-48.7-55.31-100.55-107.02-163.59-146.2-58.05-36.08-120.81-58.66-189.21-64.26-127.94-10.48-239.08,30.73-337.96,109.92-47.32,37.9-86.93,82.99-123.9,130.64-2.62,3.37-5.48,6.57-8.39,9.68-15.74,16.83-32.74,20.69-49.06,11.22-16.94-9.83-23.72-29.22-17.77-50.08,3.22-11.28,9.15-21.09,16.29-30.12,59.48-75.18,126.37-142.42,210.13-190.65C311.67,26.65,401.05-1.96,497.56,.1c113.15,2.42,217.12,35.77,309.29,102.84,72.1,52.47,134.49,114.43,184.35,188.67,4.43,6.6,5.87,11.71,.94,19.37-50.19,78.05-109.85,147-189.26,196.72-71.6,44.84-149.65,68.39-234.47,63.55-66.91-3.82-124.01-29.56-164.75-85.09-38-51.8-39.09-143.31,18.07-191.08,49.17-41.1,124.32-41.51,167.04,1.43,23.18,23.3,30.19,61.61,16.7,91.41-8.67,19.15-32.23,28.91-51.75,21.37-12.62-4.87-18.02-14.72-19.24-27.65-2.67-28.39-11.46-38.44-33.46-38.62-20.21-.17-36.04,16.17-38.83,40.08-4.26,36.51,12.99,66.73,48.55,85.03,74.61,38.41,158.14-6.02,170.24-88.58,12.05-82.23-43.78-162.1-136.66-180.26-114.65-22.42-227.28,58.15-265.96,136.4-10.12,20.47-25.89,62.08-29.65,114.21-2.16,30.02,.26,55.23,3,72.95-2.5,21.69-20.9,38.1-42.14,38.14-20.22,.04-38.07-14.74-41.88-35.14Z"/></svg>