<?xml version="1.0" encoding="UTF-8"?><svg id="Layer_1" xmlns="http://www.w3.org/2000/svg" viewBox="0 0 482.1 502.81"><defs><style>.cls-1{fill:#008bc7;}.cls-2{fill:#008cc7;}</style></defs><path class="cls-1" d="M317.66,502.81c-41.26-1.56-81.37-11.82-116.39-35.62C110.13,405.25,42.62,324.37,9.31,217.88-.42,186.78-3.65,154.66,5.09,122.35,17.66,75.87,58.22,45.56,105.81,47.21c21.5,.75,29.03,6.81,33.7,27.83,5.95,26.78,11.32,53.69,17.55,80.4,4.97,21.29-1.9,37.85-18.45,51.06-4.89,3.9-10.5,6.94-15.21,11.03-8.11,7.03-11.53,15.82-5.46,25.69,28.9,46.99,60.6,91.85,103.48,127.39,17.16,14.22,25.21,13.04,41.28-2.26,4.88-4.65,9.78-9.33,15.03-13.55,9.91-7.97,20.45-11.15,33.57-7.03,30.31,9.52,60.88,18.07,89.83,31.55,12.43,5.79,17.76,14.89,18.94,28.12,4.67,52.17-26.56,88.75-81.12,94.28-6.71,.68-13.48,.72-21.29,1.11Z"/><path class="cls-1" d="M482.1,293.64c-.57,5.96-4.58,13.01-14.35,13.61-11.57,.7-17.56-6.43-19.39-17.25-2.57-15.17-4.16-30.54-7.44-45.54-22.46-102.64-86.14-169.58-181.75-208.58-8.54-3.48-17.83-6.06-18.75-17.43-1.13-14,10.99-22.34,25.74-16.62,70.63,27.38,129.69,69.62,169.67,135.34,28.61,47.01,42.65,98.65,46.26,156.48Z"/><path class="cls-1" d="M399.82,271.55c.9,11.12,.96,22.03-13.37,24.55-11.18,1.97-19.09-5.66-20.96-21.99-5.41-47.18-23.55-87.93-58.58-120.62-18.56-17.31-40.17-29.82-63.45-39.42-11.31-4.66-18.66-11.1-13.5-23.96,5.17-12.89,15.32-12.21,26.54-8.27,79.07,27.73,138.9,106.79,143.33,189.71Z"/><path class="cls-2" d="M323.09,269.69c-.39,8.94-5.03,17.49-17.1,19.04-11.52,1.48-16.71-5.79-17.83-16.18-4.58-42.42-26.98-71.13-66.26-87.18-10.2-4.17-13.84-12.26-9.94-22.31,3.86-9.94,11.29-12.95,22.22-9.8,47.28,13.61,88.64,66.25,88.9,116.43Z"/></svg>