<?xml version="1.0" encoding="UTF-8"?><svg id="Layer_1" xmlns="http://www.w3.org/2000/svg" viewBox="0 0 512 431.66"><defs><style>.cls-1{fill:#4e85c5;}</style></defs><path class="cls-1" d="M479.05,1.9c-32.73,12.44-65.32,25.23-97.94,37.94C260.61,86.76,140.11,133.67,19.67,180.73,10.35,184.37-.49,187.1,.02,200.81c.51,13.61,11.33,15.76,20.96,18.66,31.18,9.38,62.31,19.01,93.8,27.18,12.52,3.25,18.36,9.66,21.9,21.71,11.77,40.08,24.48,79.88,37.06,119.71,6.9,21.83,23.34,25.78,39.58,9.48,15.45-15.51,30.82-31.13,45.64-47.24,8.06-8.76,14.2-11.41,25.26-2.88,33.49,25.83,68.03,50.3,102.26,75.17,22.83,16.59,40.96,10.1,46.76-17.28,19.71-93.12,39.05-186.31,58.55-279.48,6.96-33.26,13.97-66.51,20.2-96.18,.56-22.81-15.19-34.52-32.93-27.77Zm-65.18,90.49c-62.55,55.59-123.64,112.99-188.62,165.59-27.11,21.94-28.67,48.12-31.81,76.71-.98,8.97-2.28,17.91-3.43,26.87-1.27,0-2.53,0-3.8,0-11.29-36.61-22.72-73.17-33.77-109.85-2.76-9.17,3.26-14.41,10.32-18.77,50.12-30.9,100.22-61.84,150.31-92.79,31.05-19.18,62.03-38.46,93.15-57.52,4.18-2.56,9.22-8.84,13.84-2.92,4.62,5.91-2.56,9.43-6.2,12.67Z"/></svg>