<?xml version="1.0" encoding="UTF-8"?><svg id="Layer_1" xmlns="http://www.w3.org/2000/svg" viewBox="0 0 512 512.01"><defs><style>.cls-1{fill:#2d2d38;}</style></defs><path class="cls-1" d="M382.22,302.8c-11.45-5.61-22.9-11.22-34.41-16.69-5.75-2.73-11.38-5.79-17.59-7.42-4.56-1.2-7.41-.16-10.08,3.62-6.06,8.59-12.95,16.51-19.85,24.41-3.38,3.87-6.36,4.58-11.14,2.51-7.33-3.19-14.7-6.3-21.75-10.13-27.25-14.84-47.94-36.32-63.78-62.75-3.07-5.12-2.69-7.74,1.34-12.14,6.07-6.62,12.39-13.05,16.18-21.43,1.51-3.34,1.75-6.54,.25-9.87-5.44-12.11-10.27-24.48-15.47-36.69-2.32-5.44-4.13-11.13-7.36-16.16-2.61-4.05-6.23-6.07-11.08-5.64-2.81,.25-5.63,.5-8.43,.87-8.76,1.17-16.45,4.09-22.61,11.07-9.96,11.28-16.23,24.04-17.94,39-1.52,13.3,.87,26.01,5.67,38.39,4.91,12.63,12.12,23.9,19.82,34.98,12.36,17.77,25.88,34.51,41.59,49.43,15.06,14.31,31.48,26.74,50.22,35.9,14.75,7.22,30.27,12.45,45.85,17.51,6.29,2.04,12.7,3.56,19.18,4.89,8.55,1.76,16.74-.39,24.89-2.17,10.27-2.25,19.05-7.68,27.18-14.22,6.51-5.24,11.09-11.65,13.01-19.92,1.28-5.51,2.55-11,2.57-18-.17-4.99,.26-6.14-6.25-9.33Z"/><path class="cls-1" d="M511.96,244.76c-.32-18.51-2.56-36.77-7.05-54.7-11.6-46.32-34.6-86.14-68.89-119.39-23.71-23-50.96-40.59-81.62-52.81C322.95,5.32,290.28-.56,256.42,.04c-13.34,.24-26.56,1.44-39.7,3.73-24.44,4.25-47.73,11.96-69.86,23.14-27.22,13.76-51.18,31.86-71.84,54.31-20.32,22.09-36.21,47-47.49,74.82-13.26,32.69-19.22,66.67-18.02,101.93,.44,13.04,1.82,25.96,4.32,38.75,5.55,28.45,15.75,55.14,30.69,79.99,.63,1.04,.73,1.92,.33,3.08-3.12,9.04-6.17,18.11-9.24,27.17-10.24,30.18-20.47,60.35-30.71,90.53-1.58,4.67-3.15,9.35-4.89,14.52,8.48-2.7,16.39-5.22,24.3-7.74,37.64-11.97,75.29-23.94,112.93-35.91,1.14-.36,2.11-.56,3.36,.12,26.69,14.49,55.12,23.77,85.18,27.93,20.12,2.78,40.31,3.12,60.54,1.06,18.03-1.84,35.65-5.48,52.87-11.1,34.68-11.32,65.45-29.36,92.32-54.01,22.03-20.22,39.91-43.64,53.48-70.3,18.75-36.84,27.7-75.96,26.98-117.31Zm-65.56,104.34c-23.35,42.38-57.51,73.2-101.86,92.63-19.94,8.73-40.81,14.07-62.45,16.21-29.14,2.89-57.74,0-85.68-8.87-17.7-5.62-34.39-13.41-49.96-23.55-1.59-1.04-2.93-.98-4.56-.46-25.85,8.26-51.71,16.49-77.57,24.72-.2,.06-.42,.08-.97,.17,6.23-18.36,12.36-36.45,18.5-54.54,2.41-7.09,4.81-14.19,7.25-21.27,.4-1.18,.46-2.09-.36-3.23-18.84-26.14-31.03-55.11-36.43-86.86-3.65-21.49-3.91-43.07-.68-64.66,6.95-46.39,27.25-86.06,60.59-118.91,29.7-29.26,65.18-47.99,106.04-56.47,15.51-3.22,31.19-4.66,47-4.23,46.13,1.26,87.77,15.64,124.4,43.78,35.33,27.14,59.72,62.09,73.08,104.64,4.42,14.08,7.18,28.49,8.41,43.2,3.49,41.71-4.58,81.08-24.75,117.7Z"/></svg>