<?xml version="1.0" standalone="no"?>
<!DOCTYPE svg PUBLIC "-//W3C//DTD SVG 20010904//EN"
 "http://www.w3.org/TR/2001/REC-SVG-20010904/DTD/svg10.dtd">
<svg version="1.0" xmlns="http://www.w3.org/2000/svg"
 width="1025.000000pt" height="1025.000000pt" viewBox="0 0 1025.000000 1025.000000"
 preserveAspectRatio="xMidYMid meet">
<metadata>
Created by potrace 1.14, written by Peter Selinger 2001-2017
</metadata>
<g transform="translate(0.000000,1025.000000) scale(0.100000,-0.100000)"
fill="#000000" stroke="none">
<path d="M395 10236 c-182 -46 -316 -175 -369 -355 -15 -50 -16 -481 -16
-4750 0 -3187 4 -4710 11 -4741 42 -184 207 -341 392 -375 94 -17 9395 -13
9457 4 85 23 174 74 231 131 67 69 100 124 128 213 l21 69 0 4682 c0 3103 -3
4701 -10 4737 -21 114 -106 241 -207 311 -24 16 -73 41 -110 56 l-68 27 -4705
2 c-3747 1 -4715 -1 -4755 -11z"/>
</g>
</svg>
