<?xml version="1.0" standalone="no"?>
<!DOCTYPE svg PUBLIC "-//W3C//DTD SVG 20010904//EN"
 "http://www.w3.org/TR/2001/REC-SVG-20010904/DTD/svg10.dtd">
<svg version="1.0" xmlns="http://www.w3.org/2000/svg"
 width="1024.000000pt" height="1024.000000pt" viewBox="0 0 1024.000000 1024.000000"
 preserveAspectRatio="xMidYMid meet">
<metadata>
Created by potrace 1.14, written by Peter Selinger 2001-2017
</metadata>
<g transform="translate(0.000000,1024.000000) scale(0.100000,-0.100000)"
fill="#000000" stroke="none">
<path d="M4781 8599 c-425 -41 -818 -152 -1216 -342 -391 -187 -709 -397
-1030 -680 -333 -293 -805 -829 -866 -983 -18 -47 -23 -79 -24 -154 0 -108 14
-149 74 -207 58 -56 107 -77 181 -77 112 0 173 44 324 233 423 531 770 856
1211 1134 535 337 1108 507 1707 507 880 0 1628 -343 2373 -1085 128 -128 192
-196 374 -397 38 -43 32 -75 -34 -168 -216 -306 -559 -646 -860 -852 -109 -75
-201 -127 -194 -111 2 4 21 38 42 74 57 101 113 260 142 403 21 105 26 156 26
278 -1 82 -5 177 -11 211 -77 485 -440 972 -900 1211 -289 149 -599 219 -975
220 -364 0 -643 -65 -980 -229 -245 -120 -454 -272 -656 -475 -306 -309 -499
-651 -604 -1070 -39 -153 -71 -323 -85 -453 -14 -121 -14 -428 0 -567 18 -176
62 -254 172 -309 122 -62 269 -34 357 65 22 25 47 68 57 96 15 45 15 64 4 177
-16 156 -8 469 14 601 53 310 160 595 295 787 364 516 1033 848 1600 794 467
-44 842 -292 1023 -677 64 -137 89 -247 95 -414 4 -119 1 -162 -15 -241 -106
-514 -619 -799 -1096 -609 -301 119 -460 354 -426 628 16 126 73 215 165 258
94 45 210 29 268 -35 39 -44 52 -79 68 -191 21 -139 84 -212 196 -226 149 -18
283 71 329 220 24 78 29 228 10 310 -28 119 -70 192 -161 282 -66 66 -100 90
-176 128 -135 66 -226 88 -379 89 -199 2 -352 -42 -519 -150 -251 -162 -386
-415 -398 -748 -8 -209 25 -362 113 -535 59 -114 122 -196 240 -311 276 -266
603 -393 1055 -406 351 -11 638 34 967 149 436 152 836 408 1215 778 245 238
458 498 662 805 96 145 99 163 41 251 -243 368 -680 838 -1051 1127 -37 29
-96 76 -133 105 -90 72 -353 246 -477 315 -475 266 -969 414 -1555 466 -122
11 -470 11 -579 0z"/>
<path d="M990 3670 c0 -28 -1 -50 -2 -51 -2 0 -23 -2 -48 -5 -199 -23 -342
-111 -408 -252 -25 -52 -27 -68 -27 -177 0 -104 3 -127 23 -169 65 -143 210
-236 392 -255 l65 -6 3 -47 3 -48 149 0 149 0 3 48 3 47 68 7 c243 27 401 176
414 391 9 147 -40 269 -143 354 -52 42 -170 89 -244 98 -102 12 -100 10 -100
60 l0 45 -127 1 c-71 0 -138 2 -150 5 -21 4 -23 0 -23 -46z m0 -485 c0 -220 3
-212 -76 -176 -64 29 -97 80 -102 156 -2 35 1 78 7 97 19 56 96 118 149 118
l22 0 0 -195z m378 176 c46 -23 67 -46 87 -94 30 -72 10 -183 -41 -229 -24
-21 -87 -48 -112 -48 -18 0 -19 11 -21 195 l-2 195 26 0 c14 0 42 -9 63 -19z"/>
<path d="M2265 3709 c-204 -34 -342 -168 -385 -374 -17 -81 -14 -246 5 -320
39 -151 136 -269 259 -318 127 -51 279 -57 408 -17 161 50 283 193 296 345 l5
65 -147 0 c-145 0 -146 0 -146 -22 -1 -44 -38 -106 -78 -133 -98 -65 -218 -30
-274 79 -25 48 -37 164 -26 249 22 165 149 250 278 185 52 -26 88 -75 96 -130
l7 -38 145 0 145 0 -5 63 c-21 249 -286 416 -583 366z"/>
<path d="M2980 3185 l0 -515 150 0 150 0 0 205 c0 195 1 205 18 196 10 -5 81
-96 157 -202 77 -105 144 -193 150 -195 6 -3 88 -3 183 -2 l173 3 -51 70 c-57
80 -116 161 -247 339 -51 69 -93 128 -93 132 0 7 310 404 347 445 13 14 23 28
23 32 0 4 -73 7 -162 7 l-163 -1 -155 -199 c-85 -110 -161 -200 -167 -200 -10
0 -13 47 -13 200 l0 200 -150 0 -150 0 0 -515z"/>
<path d="M4513 3417 c-50 -155 -122 -374 -159 -487 -37 -113 -69 -217 -72
-232 l-4 -28 155 0 156 0 15 53 c8 28 20 73 27 100 6 26 14 48 18 48 3 1 72 3
152 4 l147 3 28 -104 27 -104 159 0 159 0 -6 23 c-4 12 -79 244 -168 515
l-161 492 -190 0 -191 -1 -92 -282z m332 -143 c25 -93 45 -172 45 -176 0 -5
-43 -8 -96 -8 -75 0 -95 3 -91 13 3 7 24 88 47 180 24 92 45 166 47 163 2 -2
24 -80 48 -172z"/>
<path d="M5420 3185 l0 -515 150 0 150 0 0 200 0 200 180 0 180 0 0 -200 0
-201 153 3 152 3 0 510 0 510 -152 3 -153 3 0 -196 0 -195 -180 0 -180 0 0
195 0 195 -150 0 -150 0 0 -515z"/>
<path d="M6722 3412 c-51 -158 -126 -388 -167 -512 l-74 -225 156 -3 c116 -2
158 1 164 10 4 7 18 51 29 99 14 57 28 90 38 94 9 3 78 5 153 4 l137 -2 28
-103 27 -104 159 0 159 0 -6 23 c-4 12 -76 234 -160 492 -84 259 -156 480
-160 493 -6 22 -8 22 -198 22 l-192 0 -93 -288z m334 -139 c24 -92 44 -171 44
-175 0 -5 -43 -8 -96 -8 -83 0 -95 2 -90 16 3 8 25 89 48 179 23 91 43 163 45
161 3 -2 24 -80 49 -173z"/>
<path d="M7630 3185 l0 -515 155 0 155 0 0 395 0 395 180 0 180 0 0 -395 0
-395 155 0 155 0 0 515 0 515 -490 0 -490 0 0 -515z"/>
<path d="M8900 3268 c-78 -238 -152 -467 -166 -508 -13 -41 -24 -78 -24 -83 0
-4 71 -7 158 -7 l158 0 18 71 c10 38 22 85 27 103 l9 34 152 -2 151 -1 26
-100 27 -100 157 -3 c121 -2 157 0 157 10 0 7 -63 206 -141 443 -77 236 -150
462 -163 500 l-23 70 -191 3 -191 2 -141 -432z m384 -12 l44 -166 -94 0 c-60
0 -94 4 -94 11 0 15 81 322 88 334 7 11 4 21 56 -179z"/>
<path d="M760 2361 c0 -15 -11 -19 -55 -24 -68 -7 -132 -41 -163 -87 -20 -29
-23 -45 -20 -91 7 -97 65 -149 186 -165 39 -5 52 -11 52 -23 0 -24 50 -27 57
-3 3 14 21 21 70 29 86 15 136 49 158 107 21 54 16 117 -13 155 -28 39 -95 72
-156 78 -38 4 -56 10 -58 21 -2 8 -15 16 -30 18 -21 2 -28 -2 -28 -15z m0
-196 c0 -141 2 -138 -84 -114 -61 17 -96 58 -96 113 0 73 59 123 148 125 l32
1 0 -125z m165 106 c51 -23 66 -41 72 -89 10 -75 -38 -126 -132 -139 l-45 -6
0 127 0 126 33 0 c17 0 50 -9 72 -19z"/>
<path d="M1284 2362 c-16 -10 -205 -390 -196 -395 28 -13 49 2 77 55 l30 58
115 0 116 0 24 -55 c13 -30 28 -55 32 -56 4 -1 17 -1 28 -1 11 0 22 0 25 1 4
1 -180 378 -190 389 -7 8 -51 11 -61 4z m74 -147 c23 -47 42 -87 42 -90 0 -3
-40 -5 -90 -5 -49 0 -90 2 -90 5 0 10 85 175 90 175 3 0 25 -38 48 -85z"/>
<path d="M1597 2364 c-4 -4 -7 -94 -7 -201 l0 -193 148 0 c128 0 151 3 179 20
42 25 60 82 44 133 -22 67 -72 87 -218 87 l-93 0 0 49 c0 60 2 61 163 61 117
0 118 0 115 23 -3 22 -6 22 -164 25 -88 1 -163 -1 -167 -4z m294 -233 c24 -30
24 -62 0 -88 -15 -16 -37 -21 -113 -27 -128 -9 -128 -9 -128 76 l0 70 111 -4
c102 -3 112 -5 130 -27z"/>
<path d="M2040 2170 c0 -166 2 -200 14 -200 8 0 21 -3 30 -6 14 -5 16 4 16 65
0 61 3 71 18 71 207 5 244 14 278 66 21 32 21 107 0 139 -32 48 -70 59 -218
62 l-138 3 0 -200z m292 122 c27 -27 27 -88 -1 -115 -18 -19 -36 -22 -126 -25
l-105 -4 0 86 0 86 106 -4 c89 -3 109 -7 126 -24z"/>
<path d="M2477 2355 c-2 -5 -2 -93 0 -195 4 -253 -2 -252 198 -45 82 86 152
155 155 155 3 0 3 -59 2 -131 -4 -159 -1 -177 33 -175 l25 1 0 197 c0 195 0
197 -22 204 -20 6 -43 -14 -173 -150 -83 -86 -154 -156 -158 -156 -4 0 -7 70
-7 155 l0 155 -25 -2 c-13 -1 -26 -7 -28 -13z"/>
<path d="M2982 2362 c-9 -7 -12 -54 -10 -203 l3 -194 27 -2 27 -2 3 92 c3 92
3 92 28 88 21 -3 54 -28 197 -155 22 -18 93 -30 93 -15 0 4 -42 43 -92 87
-148 127 -145 105 -28 206 55 48 100 91 100 95 0 4 -13 8 -30 7 -22 -1 -54
-23 -130 -89 -60 -53 -108 -87 -118 -85 -14 3 -18 18 -22 88 -5 86 -15 103
-48 82z"/>
<path d="M3584 2362 c-8 -6 -191 -364 -197 -388 -1 -4 10 -8 26 -10 24 -2 31
4 57 57 l30 59 113 0 112 0 30 -57 c25 -48 35 -58 58 -59 15 0 27 1 27 4 0 10
-194 392 -199 393 -3 0 -15 2 -26 4 -11 2 -25 1 -31 -3z m74 -147 c23 -47 42
-87 42 -90 0 -3 -40 -5 -89 -5 l-90 0 42 90 c23 49 44 90 47 90 3 0 25 -38 48
-85z"/>
<path d="M4156 2355 c-78 -28 -126 -94 -128 -178 -3 -100 43 -171 131 -202 51
-17 139 -20 195 -4 47 13 113 74 122 112 6 25 4 27 -25 27 -19 0 -31 -5 -31
-13 0 -18 -49 -64 -83 -76 -47 -18 -119 -13 -167 12 -54 27 -82 71 -82 132 0
61 28 105 82 133 84 42 204 19 243 -48 22 -36 67 -43 67 -10 0 28 -58 90 -105
111 -49 22 -162 25 -219 4z"/>
<path d="M4499 2348 c-16 -30 2 -37 88 -32 l73 4 0 -33 c0 -17 1 -96 1 -174 0
-79 3 -143 7 -144 4 0 17 -2 30 -5 13 -2 22 1 22 9 1 6 2 86 3 177 l2 165 88
3 c77 2 87 5 87 21 0 11 -7 22 -17 25 -9 4 -96 6 -195 6 -169 -1 -179 -3 -189
-22z"/>
<path d="M4963 2363 c-10 -4 -13 -52 -13 -198 l0 -193 27 -5 c23 -4 35 2 68
37 137 143 258 266 261 266 2 0 4 -67 4 -150 l0 -150 30 0 30 0 0 199 0 199
-30 -4 c-27 -5 -148 -120 -293 -279 l-36 -40 -1 156 c0 141 -2 157 -17 161
-10 3 -24 3 -30 1z"/>
<path d="M5457 2363 c-4 -3 -7 -93 -7 -199 0 -161 2 -193 15 -198 34 -13 45 4
45 73 l0 66 108 0 c117 0 151 10 185 57 25 33 26 107 3 142 -31 49 -70 60
-212 63 -72 2 -134 0 -137 -4z m285 -71 c29 -28 28 -86 -1 -116 -18 -18 -36
-21 -126 -24 l-105 -4 0 87 0 87 105 -4 c92 -3 108 -6 127 -26z"/>
<path d="M5890 2167 l0 -203 28 2 c27 1 27 1 32 87 3 48 8 87 13 87 4 0 13 0
20 0 7 0 58 -39 113 -88 79 -69 106 -87 130 -86 16 0 29 5 29 10 1 5 -48 51
-107 103 -60 52 -107 95 -106 96 48 40 204 179 206 184 1 4 -13 6 -31 6 -28
-1 -53 -18 -133 -88 -54 -48 -106 -87 -116 -87 -16 0 -18 10 -18 84 0 67 -3
85 -16 90 -44 17 -44 17 -44 -197z"/>
<path d="M6333 2362 c-9 -6 -12 -57 -10 -196 l2 -189 25 -9 c22 -8 36 3 175
147 82 86 154 155 158 155 4 0 7 -68 6 -152 l-1 -151 26 -2 26 -1 0 204 0 204
-27 -6 c-18 -4 -78 -58 -174 -156 -80 -83 -148 -150 -152 -150 -4 0 -7 67 -7
149 0 127 -2 150 -16 155 -19 7 -16 7 -31 -2z"/>
<path d="M6977 2363 c-4 -3 -7 -95 -7 -204 l0 -198 28 2 27 2 3 91 c3 90 3 91
27 87 13 -3 67 -43 120 -90 71 -62 105 -85 130 -88 36 -5 55 8 31 22 -12 7
-90 74 -188 163 l-28 25 105 90 c58 50 105 93 105 97 0 4 -16 5 -36 2 -28 -3
-58 -24 -132 -89 -53 -47 -104 -85 -114 -85 -16 0 -18 10 -18 84 0 67 -3 85
-16 90 -20 8 -29 8 -37 -1z"/>
<path d="M7518 2360 c-47 -14 -88 -44 -116 -84 -23 -34 -27 -49 -27 -110 0
-61 4 -77 28 -112 15 -22 46 -51 70 -65 36 -21 55 -24 137 -24 86 0 100 3 142
27 68 41 93 87 93 174 0 60 -4 77 -27 111 -40 60 -112 93 -202 92 -39 0 -83
-4 -98 -9z m192 -63 c110 -58 105 -214 -8 -268 -36 -18 -56 -21 -109 -16 -106
8 -158 60 -158 157 1 52 5 63 30 91 40 42 79 58 146 59 39 0 69 -7 99 -23z"/>
<path d="M7919 2363 c-5 -31 -3 -386 2 -389 3 -2 74 -4 157 -5 164 -1 198 8
221 58 25 54 0 123 -50 138 -18 6 -18 8 11 35 63 59 27 145 -66 161 -63 10
-274 11 -275 2z m281 -56 c34 -17 39 -66 9 -93 -17 -16 -39 -20 -125 -22 -115
-4 -105 -10 -107 63 -1 68 -6 65 101 65 58 0 107 -5 122 -13z m29 -181 c27
-24 27 -68 0 -92 -18 -16 -37 -19 -137 -19 l-116 0 -1 60 c0 33 1 64 4 69 2 4
54 6 116 5 94 -3 117 -7 134 -23z"/>
<path d="M8382 2362 c-9 -6 -12 -54 -10 -202 l3 -193 28 -1 c27 -2 27 -1 27
66 0 37 3 68 8 68 4 0 56 2 116 4 122 5 147 15 179 77 39 75 -6 163 -93 179
-58 11 -242 12 -258 2z m285 -77 c29 -34 29 -67 -1 -102 -23 -26 -28 -28 -130
-31 l-106 -4 0 79 c0 44 3 82 6 86 3 3 52 4 107 2 95 -3 103 -5 124 -30z"/>
<path d="M8926 2355 c-134 -48 -176 -218 -80 -325 74 -82 243 -96 345 -27 69
46 99 160 64 244 -22 52 -42 72 -100 99 -58 28 -165 32 -229 9z m201 -55 c55
-25 83 -70 83 -135 0 -104 -76 -162 -198 -152 -51 4 -71 11 -100 34 -64 52
-78 148 -29 209 47 60 163 81 244 44z"/>
<path d="M9353 2363 c-10 -3 -13 -53 -13 -201 l0 -197 155 2 c174 3 207 12
229 65 24 55 -13 138 -60 138 -8 0 -1 12 17 28 62 55 31 142 -57 162 -41 10
-250 12 -271 3z m288 -72 c10 -13 19 -29 19 -36 0 -7 -9 -23 -19 -36 -18 -22
-28 -24 -130 -27 l-111 -4 0 67 0 67 111 -4 c102 -3 112 -5 130 -27z m-12
-152 c38 -13 55 -48 41 -83 -12 -34 -58 -46 -171 -46 l-99 0 0 70 0 70 99 0
c54 0 113 -5 130 -11z"/>
</g>
</svg>
